<svg width="254" height="73" viewBox="0 0 254 73" fill="none" xmlns="http://www.w3.org/2000/svg">
<path d="M15.5 43.3591C9.94591 45.8092 6.5 49.2235 6.5 53C6.5 60.4558 19.9315 66.5 36.5 66.5C53.0685 66.5 66.5 60.4558 66.5 53C66.5 49.2235 63.0541 45.8092 57.5 43.3591M30.1204 17.375C28.096 19.2116 26.7462 21.8103 26.7462 24.5C26.7462 26.9809 27.8928 29.3836 29.6575 31.183M30.1204 17.375C31.8838 15.7753 34.159 14.7538 36.5 14.7538C38.841 14.7538 41.1162 15.7753 42.8796 17.375M30.1204 17.375C30.1204 17.375 34.0086 19.625 36.5 19.625C38.9914 19.625 42.8796 17.375 42.8796 17.375M42.8796 17.375C44.904 19.2116 46.2537 21.8103 46.2537 24.5C46.2537 26.9809 45.1072 29.3836 43.3425 31.183M29.6575 31.183C31.4751 33.0365 33.9485 34.25 36.5 34.25C39.0515 34.25 41.5249 33.0365 43.3425 31.183M29.6575 31.183C29.6575 31.183 33.8278 29.1875 36.5 29.1875C39.1722 29.1875 43.3425 31.183 43.3425 31.183M54.5 24.5C54.5 36.6911 41 42.5 36.5 51.5C32 42.5 18.5 36.6911 18.5 24.5C18.5 14.5589 26.5589 6.5 36.5 6.5C46.4411 6.5 54.5 14.5589 54.5 24.5Z" stroke="#01001F" stroke-width="1.6" stroke-linecap="round" stroke-linejoin="round"/>
<path d="M86.768 27.78C86.768 27.228 86.972 26.76 87.38 26.376C87.812 25.992 88.34 25.8 88.964 25.8H105.164C105.164 27.096 104.924 28.044 104.444 28.644C103.988 29.244 103.256 29.544 102.248 29.544H91.088V36.24H100.844C100.844 37.536 100.604 38.484 100.124 39.084C99.668 39.684 98.936 39.984 97.928 39.984H91.088V48.12C91.088 49.248 90.74 50.064 90.044 50.568C89.372 51.072 88.28 51.324 86.768 51.324V27.78ZM109.986 30.624C109.194 30.624 108.534 30.384 108.006 29.904C107.478 29.4 107.214 28.776 107.214 28.032C107.214 27.288 107.478 26.676 108.006 26.196C108.534 25.716 109.194 25.476 109.986 25.476C110.778 25.476 111.438 25.716 111.966 26.196C112.494 26.676 112.758 27.288 112.758 28.032C112.758 28.776 112.494 29.4 111.966 29.904C111.438 30.384 110.778 30.624 109.986 30.624ZM107.97 35.268C107.97 34.356 108.306 33.696 108.978 33.288C109.65 32.88 110.658 32.676 112.002 32.676V48.732C112.002 49.644 111.666 50.304 110.994 50.712C110.322 51.12 109.314 51.324 107.97 51.324V35.268ZM118.168 35.88C118.168 33.744 119.452 32.676 122.02 32.676V34.872C121.732 35.184 121.456 35.556 121.192 35.988L121.408 36.132C122.104 35.076 123.016 34.236 124.144 33.612C125.296 32.988 126.556 32.676 127.924 32.676C129.172 32.676 130.264 32.952 131.2 33.504C132.136 34.032 132.856 34.776 133.36 35.736C133.888 36.696 134.152 37.764 134.152 38.94V48.732C134.152 49.644 133.816 50.304 133.144 50.712C132.472 51.12 131.464 51.324 130.12 51.324V39.48C130.12 38.496 129.82 37.704 129.22 37.104C128.644 36.48 127.792 36.168 126.664 36.168C125.416 36.168 124.36 36.564 123.496 37.356C122.632 38.124 122.2 39.072 122.2 40.2V48.732C122.2 49.644 121.864 50.304 121.192 50.712C120.544 51.12 119.536 51.324 118.168 51.324V35.88ZM145.835 51.324C144.515 51.324 143.327 51.06 142.271 50.532C141.239 49.98 140.423 49.224 139.823 48.264C139.247 47.28 138.959 46.164 138.959 44.916V39.048C138.959 37.8 139.271 36.696 139.895 35.736C140.519 34.776 141.371 34.032 142.451 33.504C143.555 32.952 144.803 32.676 146.195 32.676C147.155 32.676 148.115 32.88 149.075 33.288C150.035 33.672 150.851 34.212 151.523 34.908L151.631 34.728C151.487 34.536 151.235 34.284 150.875 33.972V28.32C150.875 27.408 151.211 26.712 151.883 26.232C152.555 25.728 153.575 25.476 154.943 25.476V48.408C154.943 49.272 154.643 49.98 154.043 50.532C153.443 51.06 152.495 51.324 151.199 51.324V49.344C151.511 48.96 151.739 48.636 151.883 48.372L151.739 48.228C150.971 49.236 150.131 50.004 149.219 50.532C148.331 51.06 147.203 51.324 145.835 51.324ZM146.951 47.796C148.103 47.796 149.051 47.52 149.795 46.968C150.539 46.392 150.911 45.684 150.911 44.844V39.12C150.911 38.28 150.551 37.584 149.831 37.032C149.111 36.456 148.151 36.168 146.951 36.168C145.679 36.168 144.695 36.444 143.999 36.996C143.327 37.548 142.991 38.316 142.991 39.3V44.664C142.991 45.672 143.327 46.452 143.999 47.004C144.695 47.532 145.679 47.796 146.951 47.796ZM169.902 51.324C167.79 51.324 165.954 51.048 164.394 50.496C162.834 49.944 161.634 49.188 160.794 48.228C159.978 47.268 159.57 46.164 159.57 44.916C159.57 42.972 160.794 42 163.242 42C163.29 43.896 163.89 45.336 165.042 46.32C166.218 47.304 167.862 47.796 169.974 47.796C171.822 47.796 173.25 47.484 174.258 46.86C175.266 46.236 175.77 45.336 175.77 44.16C175.77 43.416 175.578 42.816 175.194 42.36C174.81 41.88 174.162 41.46 173.25 41.1C172.338 40.716 171.018 40.332 169.29 39.948C166.986 39.444 165.162 38.856 163.818 38.184C162.498 37.512 161.538 36.708 160.938 35.772C160.338 34.836 160.038 33.672 160.038 32.28C160.038 30.936 160.434 29.748 161.226 28.716C162.018 27.684 163.134 26.892 164.574 26.34C166.014 25.764 167.682 25.476 169.578 25.476C171.378 25.476 172.998 25.728 174.438 26.232C175.878 26.712 177.006 27.396 177.822 28.284C178.638 29.172 179.046 30.192 179.046 31.344C179.046 33 177.882 33.864 175.554 33.936C175.362 32.208 174.786 30.948 173.826 30.156C172.89 29.364 171.474 28.968 169.578 28.968C167.898 28.968 166.602 29.256 165.69 29.832C164.778 30.408 164.322 31.224 164.322 32.28C164.322 33 164.49 33.6 164.826 34.08C165.186 34.536 165.774 34.944 166.59 35.304C167.406 35.64 168.582 35.976 170.118 36.312C172.566 36.864 174.51 37.488 175.95 38.184C177.39 38.856 178.422 39.672 179.046 40.632C179.694 41.568 180.018 42.744 180.018 44.16C180.018 45.624 179.598 46.896 178.758 47.976C177.942 49.056 176.766 49.884 175.23 50.46C173.718 51.036 171.942 51.324 169.902 51.324ZM184.604 35.592C184.604 34.752 184.916 34.056 185.54 33.504C186.164 32.952 187.1 32.676 188.348 32.676V34.656C188.036 35.04 187.808 35.352 187.664 35.592L187.808 35.736C188.552 34.752 189.392 33.996 190.328 33.468C191.264 32.94 192.416 32.676 193.784 32.676C195.8 32.676 197.432 33.264 198.68 34.44C199.952 35.616 200.588 37.164 200.588 39.084V44.916C200.588 46.188 200.276 47.316 199.652 48.3C199.028 49.26 198.164 50.004 197.06 50.532C195.98 51.06 194.744 51.324 193.352 51.324C192.392 51.324 191.432 51.12 190.472 50.712C189.512 50.304 188.696 49.764 188.024 49.092L187.916 49.272C188.06 49.464 188.312 49.716 188.672 50.028V55.68C188.672 57.576 187.316 58.524 184.604 58.524V35.592ZM192.596 47.796C193.868 47.796 194.84 47.532 195.512 47.004C196.208 46.452 196.556 45.684 196.556 44.7V39.336C196.556 38.304 196.208 37.524 195.512 36.996C194.84 36.444 193.868 36.168 192.596 36.168C191.444 36.168 190.496 36.456 189.752 37.032C189.008 37.608 188.636 38.316 188.636 39.156V44.844C188.636 45.684 188.996 46.392 189.716 46.968C190.436 47.52 191.396 47.796 192.596 47.796ZM212.006 51.324C210.47 51.324 209.078 51.048 207.83 50.496C206.606 49.92 205.634 49.14 204.914 48.156C204.218 47.172 203.87 46.056 203.87 44.808V39.48C203.87 38.208 204.218 37.056 204.914 36.024C205.61 34.992 206.57 34.176 207.794 33.576C209.042 32.976 210.446 32.676 212.006 32.676C213.566 32.676 214.958 32.976 216.182 33.576C217.43 34.176 218.402 34.992 219.098 36.024C219.794 37.056 220.142 38.208 220.142 39.48V44.808C220.142 46.056 219.782 47.172 219.062 48.156C218.366 49.14 217.394 49.92 216.146 50.496C214.922 51.048 213.542 51.324 212.006 51.324ZM212.006 47.832C213.278 47.832 214.286 47.544 215.03 46.968C215.774 46.368 216.146 45.564 216.146 44.556V39.66C216.146 38.604 215.774 37.752 215.03 37.104C214.286 36.456 213.278 36.132 212.006 36.132C210.734 36.132 209.726 36.456 208.982 37.104C208.238 37.752 207.866 38.604 207.866 39.66V44.556C207.866 45.564 208.238 46.368 208.982 46.968C209.726 47.544 210.734 47.832 212.006 47.832ZM233.506 36.168C232.114 36.168 230.974 36.564 230.086 37.356C229.198 38.124 228.754 39.072 228.754 40.2V48.732C228.754 49.644 228.418 50.304 227.746 50.712C227.098 51.12 226.09 51.324 224.722 51.324V35.88C224.722 33.744 226.006 32.676 228.574 32.676V34.836C228.238 35.22 227.962 35.604 227.746 35.988L227.926 36.132C229.486 33.828 231.394 32.676 233.65 32.676C234.61 32.676 235.342 32.928 235.846 33.432C236.35 33.912 236.602 34.524 236.602 35.268C236.602 35.82 236.458 36.312 236.17 36.744C235.474 36.36 234.586 36.168 233.506 36.168ZM247.995 51.324C246.123 51.324 244.731 50.784 243.819 49.704C242.931 48.624 242.487 47.232 242.487 45.528V36.06H238.887C238.887 35.028 239.091 34.26 239.499 33.756C239.907 33.252 240.459 33 241.155 33H242.523V29.868C242.523 28.956 242.847 28.296 243.495 27.888C244.167 27.48 245.163 27.276 246.483 27.276V33H251.271C251.271 34.08 251.055 34.86 250.623 35.34C250.191 35.82 249.507 36.06 248.571 36.06H246.519V45.384C246.519 46.248 246.687 46.872 247.023 47.256C247.359 47.616 247.947 47.796 248.787 47.796C249.627 47.796 250.455 47.568 251.271 47.112C251.487 47.304 251.643 47.544 251.739 47.832C251.859 48.12 251.919 48.42 251.919 48.732C251.919 49.404 251.571 50.004 250.875 50.532C250.179 51.06 249.219 51.324 247.995 51.324Z" fill="#01001F"/>
</svg>
